<svg xmlns="http://www.w3.org/2000/svg" version="1.0" width="64.000000pt" height="64.000000pt" viewBox="0 0 64.000000 64.000000" preserveAspectRatio="xMidYMid meet">
<metadata>
Created by potrace 1.10, written by Peter Selinger 2001-2011
</metadata>
<g transform="translate(0.000000,64.000000) scale(0.100000,-0.100000)" fill="#000000" stroke="none">
<path d="M185 447 c-86 -34 -108 -74 -110 -201 -1 -69 -4 -81 -24 -97 -13 -11 -30 -19 -38 -19 -28 0 -9 -35 21 -38 18 -2 26 0 21 7 -3 6 5 21 19 33 19 17 28 37 33 73 3 28 11 53 17 57 7 5 5 8 -6 8 -11 0 -15 6 -11 20 3 11 9 20 13 20 4 0 13 20 19 44 10 40 14 44 54 54 48 13 98 6 75 -10 -9 -7 -7 -8 8 -5 23 5 73 -27 61 -39 -4 -5 -16 -3 -27 4 -14 9 -20 9 -23 -1 -3 -8 -10 -5 -22 8 -14 17 -16 17 -11 3 3 -10 0 -18 -6 -18 -16 0 34 -37 57 -42 11 -2 32 2 48 9 20 10 27 21 27 44 0 19 -6 32 -17 36 -10 4 -25 15 -33 24 -16 18 -72 40 -99 38 -9 0 -29 -6 -46 -12z"/>
<path d="M156 315 c-12 -9 -16 -20 -11 -32 6 -16 8 -15 16 7 6 13 15 28 22 32 7 4 8 8 2 8 -5 -1 -18 -7 -29 -15z"/>
<path d="M213 303 c4 -16 0 -23 -9 -23 -21 0 0 -37 25 -45 25 -8 34 -42 14 -54 -12 -6 -8 -9 15 -13 26 -4 30 -2 20 10 -9 10 -8 16 3 23 11 7 10 9 -6 9 -11 0 -15 4 -10 8 6 4 11 12 12 17 1 6 4 17 8 26 4 12 -3 20 -27 30 -18 7 -37 18 -41 23 -5 7 -7 2 -4 -11z"/>
<path d="M298 268 c-8 -23 4 -59 19 -56 8 2 13 7 13 12 -1 5 4 12 11 17 10 6 10 11 0 23 -16 19 -38 21 -43 4z"/>
<path d="M176 182 c-16 -3 -15 -6 10 -23 16 -10 43 -19 59 -18 l30 1 -30 10 c-16 6 -34 17 -40 23 -5 6 -18 10 -29 7z"/>
<path d="M157 143 c-4 -3 0 -15 9 -24 16 -17 15 -19 0 -25 -13 -5 -14 -9 -5 -14 7 -5 27 -1 46 8 29 14 35 14 43 2 7 -11 1 -18 -21 -27 -31 -13 -67 -11 -112 6 -17 7 -26 7 -22 1 3 -6 13 -10 21 -10 8 0 14 -4 14 -10 0 -5 12 -10 27 -10 26 0 26 -1 7 -16 -18 -15 -18 -15 3 -5 14 7 30 8 47 1 14 -5 28 -6 30 -1 8 12 -4 20 -22 15 -10 -2 -5 1 9 8 14 7 33 19 41 25 18 15 78 -4 78 -24 0 -7 5 -13 11 -13 5 0 7 6 4 12 -4 7 1 4 9 -6 9 -11 16 -23 16 -28 0 -4 9 -8 21 -8 20 0 20 0 -2 40 -18 32 -33 44 -77 60 -30 11 -62 18 -71 15 -9 -2 -29 4 -46 15 -32 21 -47 24 -58 13z"/>
</g>
</svg>
